<svg xmlns="http://www.w3.org/2000/svg" width="250" height="109" viewBox="0 0 250 109" fill="none"><path d="M27.5096 69.7009C25.299 69.1241 23.2135 68.1457 21.3574 66.8146L24.0831 60.7931C25.6955 61.9394 27.4805 62.8218 29.3708 63.4071C31.3489 64.0567 33.4173 64.3901 35.4996 64.3951C37.7735 64.3951 39.4556 64.058 40.5459 63.3838C41.0292 63.1253 41.4343 62.7421 41.7192 62.2742C42.0041 61.8063 42.1582 61.2707 42.1657 60.7231C42.1791 60.3259 42.1003 59.931 41.9355 59.5692C41.7707 59.2075 41.5243 58.8888 41.2156 58.6381C40.4842 58.0483 39.6461 57.6046 38.747 57.3311C37.7424 57.0044 36.4107 56.6387 34.6663 56.2497C32.4736 55.7514 30.3126 55.1227 28.1949 54.367C26.5163 53.7591 25.0207 52.7336 23.8494 51.3874C22.5902 49.8268 21.9498 47.8579 22.0505 45.856C22.0328 43.9185 22.6 42.0207 23.6781 40.4101C24.9046 38.6625 26.6152 37.3105 28.5998 36.5202C31.1477 35.4879 33.8801 34.9875 36.6288 35.0499C38.8123 35.0413 40.9886 35.3026 43.108 35.8278C45.065 36.31 46.9337 37.0976 48.6449 38.1618L46.1685 44.2378C43.2672 42.5062 39.9612 41.5672 36.582 41.5148C34.3392 41.5148 32.6831 41.8779 31.6136 42.604C31.1199 42.9005 30.7123 43.3206 30.4309 43.8227C30.1496 44.3248 30.0043 44.8916 30.0094 45.467C30.0061 46.0453 30.1827 46.6104 30.5147 47.0842C30.8467 47.558 31.3177 47.9172 31.8628 48.1121C33.687 48.871 35.584 49.4418 37.5243 49.8159C39.7168 50.312 41.8778 50.9381 43.9958 51.6908C45.6602 52.3098 47.147 53.3276 48.3256 54.6549C49.5812 56.1841 50.2224 58.1253 50.1245 60.1007C50.1452 62.042 49.5689 63.9429 48.4736 65.5465C47.2251 67.2923 45.5004 68.6426 43.5051 69.4364C40.9418 70.4462 38.1991 70.9227 35.4451 70.8368C32.7592 70.8388 30.0868 70.4563 27.5096 69.7009V69.7009Z" fill="#101939"></path><path d="M52.6641 44.999H59.9999V70.2677H52.6641V44.999Z" fill="#101939"></path><path d="M86.4684 47.7231C88.3894 49.5955 89.3524 52.3806 89.3576 56.0786V70.549H82.0218V57.2067C82.1093 55.6065 81.6448 54.0248 80.7057 52.7255C80.3712 52.3055 79.9442 51.9684 79.4579 51.7403C78.9717 51.5123 78.4392 51.3995 77.9022 51.4107C76.0565 51.4107 75.4335 52.0331 74.3355 53.1767C73.4746 54.1111 72.9297 55.2923 72.778 56.5532C72.6977 57.1227 72.6586 57.6973 72.6611 58.2725V70.7668H65.3564V45.4981H72.3652V48.4544C73.1806 47.536 74.1439 46.7603 75.2155 46.1594C76.6869 45.2646 78.4053 44.8613 80.1216 45.008C83.2678 45.078 84.5371 45.8404 86.4684 47.7231Z" fill="#101939"></path><path d="M125.952 35.4229H133.592V70.5874H125.952V35.4229Z" fill="#101939"></path><path d="M164.539 59.8044H144.79C145.101 61.3614 146.006 62.7365 147.313 63.6398C148.774 64.6203 150.508 65.1133 152.266 65.048C153.498 65.0694 154.723 64.8637 155.879 64.4411C156.977 64.0073 157.976 63.3564 158.815 62.5273L162.849 66.8918C160.388 69.6977 156.796 71.1032 152.071 71.1084C149.376 71.1553 146.708 70.5662 144.284 69.3891C142.118 68.3268 140.3 66.6698 139.043 64.6123C137.796 62.5147 137.157 60.1121 137.197 57.6728C137.163 55.2471 137.794 52.8584 139.019 50.7643C140.204 48.7255 141.932 47.0555 144.011 45.9409C146.176 44.826 148.575 44.2379 151.011 44.2244C153.447 44.2108 155.851 44.7723 158.029 45.8631C160.073 46.9415 161.765 48.5831 162.904 50.5932C164.122 52.7789 164.735 55.2495 164.679 57.7505C164.687 57.8672 164.64 58.5441 164.539 59.8044ZM146.823 51.3867C145.636 52.3974 144.872 53.8159 144.681 55.3622H157.546C157.352 53.8254 156.591 52.4163 155.412 51.41C154.215 50.4126 152.695 49.8869 151.137 49.9319C149.57 49.8801 148.037 50.3969 146.823 51.3867Z" fill="#101939"></path><path d="M175.162 69.491H167.561V35.5401L175.278 35.4856L175.162 49.8315L188.603 35.5245L198.119 35.6101L183.596 51.1696L199.093 69.4832L188.634 69.5999L175.395 53.5891L175.162 69.491Z" fill="#101939"></path><path d="M223.295 59.5795H204.161C204.461 61.0852 205.335 62.4155 206.598 63.2905C208.014 64.237 209.693 64.7135 211.395 64.6519C212.589 64.6728 213.777 64.475 214.9 64.0684C215.963 63.6469 216.93 63.0144 217.742 62.2091L221.636 66.4413C219.253 69.1642 215.774 70.5257 211.201 70.5257C208.581 70.5748 205.988 70.0043 203.631 68.8608C201.526 67.8223 199.764 66.2022 198.554 64.1929C197.348 62.1631 196.731 59.8388 196.77 57.479C196.736 55.1279 197.345 52.812 198.53 50.7806C199.682 48.8072 201.359 47.1914 203.374 46.1128C205.476 45.0257 207.806 44.4526 210.172 44.4404C212.539 44.4282 214.874 44.9774 216.987 46.0427C218.966 47.0847 220.604 48.6724 221.706 50.6172C222.9 52.7516 223.5 55.1667 223.443 57.6112C223.443 57.7046 223.388 58.3892 223.295 59.5795ZM206.162 51.4574C205.014 52.4375 204.275 53.8113 204.091 55.3084H216.551C216.361 53.8213 215.626 52.4573 214.487 51.4808C213.328 50.5135 211.854 50.0043 210.344 50.0493C208.815 49.9928 207.318 50.4932 206.131 51.4574H206.162Z" fill="#101939"></path><path d="M249.735 45.1641L240.475 70.8373C239.229 73.9492 237.485 77.3256 235.647 78.617C233.809 79.9085 231.753 80.173 229.16 80.173C227.658 80.1298 226.171 79.8677 224.745 79.395C223.358 78.9594 225.087 79.8229 224.207 79.0449L224.161 72.1987C225.056 72.5955 224.815 72.5099 225.609 72.8133C226.354 73.1048 227.146 73.2578 227.945 73.2646C228.888 73.3084 229.818 73.0344 230.585 72.4866C231.391 71.7749 232.016 70.8815 232.408 69.8804L232.509 69.6314L222.315 45.1641H230.453L236.574 60.6458L242.173 45.1641H249.735Z" fill="#101939"></path><path d="M54.3382 7.70373C64.3916 7.72243 74.1708 10.9799 82.2237 16.9925C90.2765 23.0051 96.1734 31.452 99.0386 41.0789H122.362V34.8084H105.012C100.584 23.2889 92.3584 13.6211 81.6912 7.40002C71.024 1.17895 58.5528 -1.22376 46.3349 0.588285C34.117 2.40032 22.8823 8.31886 14.4843 17.3675C6.08631 26.4161 1.02668 38.0542 0.140131 50.3619C-0.746423 62.6696 2.59306 74.9116 9.60765 85.0682C16.6222 95.2248 26.8929 102.689 38.7252 106.23C50.5575 109.771 63.2446 109.177 74.6935 104.546C86.1424 99.9149 95.6691 91.5233 101.702 80.7557C103.207 81.0069 104.731 81.1344 106.258 81.1369C110.899 81.1369 114.427 80.0089 116.841 77.7527C119.255 75.4966 120.462 72.0528 120.462 67.4212V46.4158H113.5V49.6522C112.134 47.9374 110.202 46.7651 108.049 46.3458C107.092 46.1348 106.116 46.0304 105.136 46.0346C103.503 46.024 101.881 46.3059 100.347 46.8671C99.8129 47.066 99.2926 47.2999 98.7894 47.5672C96.8961 48.55 95.3115 50.0361 94.2103 51.8617C93.1014 53.8025 92.5149 55.9973 92.508 58.2321C92.5012 60.4668 93.0743 62.6652 94.1714 64.6127C95.2481 66.3838 96.7776 67.8365 98.6025 68.8216C98.657 68.8216 98.7037 68.8838 98.7504 68.9071C100.715 69.9442 102.906 70.4788 105.128 70.4631C105.487 70.4631 105.837 70.4631 106.18 70.4164C107.485 70.3817 108.77 70.0888 109.961 69.5546C111.152 69.0205 112.225 68.2557 113.118 67.3045V68.3859C113.118 70.7043 112.514 72.434 111.304 73.575C110.094 74.716 108.223 75.2865 105.689 75.2865C105.261 75.2865 104.84 75.2865 104.412 75.2321C103.184 75.132 101.972 74.8919 100.799 74.5163C99.4863 74.119 98.2494 73.5064 97.1384 72.7037C93.8117 80.4219 88.456 87.0969 81.6395 92.0207C74.823 96.9446 66.7996 99.9337 58.4203 100.671C50.041 101.409 41.6181 99.867 34.0449 96.2096C26.4716 92.5522 20.0302 86.9155 15.4039 79.8972C10.7776 72.8789 8.13872 64.7407 7.76718 56.3455C7.39565 47.9503 9.30528 39.6112 13.2936 32.2124C17.2819 24.8136 23.2001 18.631 30.4208 14.3203C37.6414 10.0095 45.8953 7.73121 54.307 7.72707L54.3382 7.70373ZM111.358 62.7067C110.341 63.6332 109.052 64.2086 107.683 64.3482C107.321 64.3916 106.957 64.415 106.592 64.4182C104.833 64.483 103.116 63.8703 101.795 62.7067C101.237 62.2001 100.787 61.5862 100.471 60.9018C100.091 60.0586 99.8995 59.1426 99.9108 58.2177C99.8808 57.3778 100.034 56.5414 100.359 55.7664C100.685 54.9913 101.175 54.2961 101.795 53.7288C103.116 52.5651 104.833 51.9525 106.592 52.0173C107.264 52.0126 107.934 52.091 108.586 52.2507C109.622 52.4966 110.577 53.0058 111.358 53.7288C111.949 54.3183 112.417 55.0181 112.736 55.7884C113.055 56.5586 113.22 57.3841 113.22 58.2177C113.22 59.0514 113.055 59.8769 112.736 60.6471C112.417 61.4173 111.949 62.1172 111.358 62.7067V62.7067Z" fill="#101939"></path><path d="M164.056 34.7148H137.182V41.0709H164.056V34.7148Z" fill="#101939"></path><path d="M203.843 34.7148H250V41.0787H197.839L203.843 34.7148Z" fill="#101939"></path></svg>